<mxfile host="Electron" modified="2023-12-31T07:52:41.199Z" agent="Mozilla/5.0 (X11; Linux x86_64) AppleWebKit/537.36 (KHTML, like Gecko) draw.io/22.1.16 Chrome/120.0.6099.109 Electron/28.1.0 Safari/537.36" etag="1yujYIPYmUDDxxmwE-6L" version="22.1.16" type="device">
  <diagram name="Page-1" id="3Mp0PbwUktRYAPY-RzWA">
    <mxGraphModel dx="752" dy="531" grid="1" gridSize="10" guides="1" tooltips="1" connect="1" arrows="1" fold="1" page="1" pageScale="1" pageWidth="827" pageHeight="1169" math="0" shadow="0">
      <root>
        <mxCell id="0" />
        <mxCell id="1" parent="0" />
        <mxCell id="UlQWl9-wMikR5g_MKxwP-54" style="rounded=0;orthogonalLoop=1;jettySize=auto;html=1;exitX=0.5;exitY=1;exitDx=0;exitDy=0;entryX=0.5;entryY=0;entryDx=0;entryDy=0;endArrow=none;endFill=0;" edge="1" parent="1" source="UlQWl9-wMikR5g_MKxwP-1" target="UlQWl9-wMikR5g_MKxwP-28">
          <mxGeometry relative="1" as="geometry" />
        </mxCell>
        <mxCell id="UlQWl9-wMikR5g_MKxwP-1" value="" style="rounded=0;whiteSpace=wrap;html=1;" vertex="1" parent="1">
          <mxGeometry x="40" y="40" width="160" height="150" as="geometry" />
        </mxCell>
        <mxCell id="UlQWl9-wMikR5g_MKxwP-5" value="" style="group;fillColor=#fad9d5;strokeColor=#ae4132;" vertex="1" connectable="0" parent="1">
          <mxGeometry x="50" y="50" width="140" height="60" as="geometry" />
        </mxCell>
        <mxCell id="UlQWl9-wMikR5g_MKxwP-2" value="&amp;nbsp;1" style="rounded=0;whiteSpace=wrap;html=1;align=left;fillColor=#647687;strokeColor=#314354;fontColor=#ffffff;" vertex="1" parent="UlQWl9-wMikR5g_MKxwP-5">
          <mxGeometry width="140" height="20" as="geometry" />
        </mxCell>
        <mxCell id="UlQWl9-wMikR5g_MKxwP-3" value="&amp;nbsp;8" style="rounded=0;whiteSpace=wrap;html=1;align=left;fillColor=#647687;strokeColor=#314354;fontColor=#ffffff;" vertex="1" parent="UlQWl9-wMikR5g_MKxwP-5">
          <mxGeometry y="20" width="140" height="20" as="geometry" />
        </mxCell>
        <mxCell id="UlQWl9-wMikR5g_MKxwP-4" value="&amp;nbsp;5" style="rounded=0;whiteSpace=wrap;html=1;align=left;fillColor=#647687;strokeColor=#314354;fontColor=#ffffff;" vertex="1" parent="UlQWl9-wMikR5g_MKxwP-5">
          <mxGeometry y="40" width="140" height="20" as="geometry" />
        </mxCell>
        <mxCell id="UlQWl9-wMikR5g_MKxwP-6" value="" style="group" vertex="1" connectable="0" parent="1">
          <mxGeometry x="50" y="120" width="140" height="60" as="geometry" />
        </mxCell>
        <mxCell id="UlQWl9-wMikR5g_MKxwP-7" value="&amp;nbsp;2" style="rounded=0;whiteSpace=wrap;html=1;align=left;fillColor=#6d8764;fontColor=#ffffff;strokeColor=#3A5431;" vertex="1" parent="UlQWl9-wMikR5g_MKxwP-6">
          <mxGeometry width="140" height="20" as="geometry" />
        </mxCell>
        <mxCell id="UlQWl9-wMikR5g_MKxwP-8" value="&amp;nbsp;6" style="rounded=0;whiteSpace=wrap;html=1;align=left;fillColor=#6d8764;fontColor=#ffffff;strokeColor=#3A5431;" vertex="1" parent="UlQWl9-wMikR5g_MKxwP-6">
          <mxGeometry y="20" width="140" height="20" as="geometry" />
        </mxCell>
        <mxCell id="UlQWl9-wMikR5g_MKxwP-9" value="&amp;nbsp;5" style="rounded=0;whiteSpace=wrap;html=1;align=left;fillColor=#6d8764;fontColor=#ffffff;strokeColor=#3A5431;" vertex="1" parent="UlQWl9-wMikR5g_MKxwP-6">
          <mxGeometry y="40" width="140" height="20" as="geometry" />
        </mxCell>
        <mxCell id="UlQWl9-wMikR5g_MKxwP-10" value="" style="rounded=0;whiteSpace=wrap;html=1;" vertex="1" parent="1">
          <mxGeometry x="240" y="40" width="160" height="150" as="geometry" />
        </mxCell>
        <mxCell id="UlQWl9-wMikR5g_MKxwP-11" value="" style="group" vertex="1" connectable="0" parent="1">
          <mxGeometry x="250" y="50" width="140" height="60" as="geometry" />
        </mxCell>
        <mxCell id="UlQWl9-wMikR5g_MKxwP-12" value="&amp;nbsp;7" style="rounded=0;whiteSpace=wrap;html=1;align=left;fillColor=#647687;fontColor=#ffffff;strokeColor=#314354;" vertex="1" parent="UlQWl9-wMikR5g_MKxwP-11">
          <mxGeometry width="140" height="20" as="geometry" />
        </mxCell>
        <mxCell id="UlQWl9-wMikR5g_MKxwP-13" value="&amp;nbsp;2" style="rounded=0;whiteSpace=wrap;html=1;align=left;fillColor=#647687;fontColor=#ffffff;strokeColor=#314354;" vertex="1" parent="UlQWl9-wMikR5g_MKxwP-11">
          <mxGeometry y="20" width="140" height="20" as="geometry" />
        </mxCell>
        <mxCell id="UlQWl9-wMikR5g_MKxwP-14" value="&amp;nbsp;3" style="rounded=0;whiteSpace=wrap;html=1;align=left;fillColor=#647687;fontColor=#ffffff;strokeColor=#314354;" vertex="1" parent="UlQWl9-wMikR5g_MKxwP-11">
          <mxGeometry y="40" width="140" height="20" as="geometry" />
        </mxCell>
        <mxCell id="UlQWl9-wMikR5g_MKxwP-15" value="" style="group" vertex="1" connectable="0" parent="1">
          <mxGeometry x="250" y="120" width="140" height="60" as="geometry" />
        </mxCell>
        <mxCell id="UlQWl9-wMikR5g_MKxwP-16" value="&amp;nbsp;7" style="rounded=0;whiteSpace=wrap;html=1;align=left;fillColor=#6d8764;fontColor=#ffffff;strokeColor=#3A5431;" vertex="1" parent="UlQWl9-wMikR5g_MKxwP-15">
          <mxGeometry width="140" height="20" as="geometry" />
        </mxCell>
        <mxCell id="UlQWl9-wMikR5g_MKxwP-17" value="&amp;nbsp;4" style="rounded=0;whiteSpace=wrap;html=1;align=left;fillColor=#6d8764;fontColor=#ffffff;strokeColor=#3A5431;" vertex="1" parent="UlQWl9-wMikR5g_MKxwP-15">
          <mxGeometry y="20" width="140" height="20" as="geometry" />
        </mxCell>
        <mxCell id="UlQWl9-wMikR5g_MKxwP-18" value="&amp;nbsp;3" style="rounded=0;whiteSpace=wrap;html=1;align=left;fillColor=#6d8764;fontColor=#ffffff;strokeColor=#3A5431;" vertex="1" parent="UlQWl9-wMikR5g_MKxwP-15">
          <mxGeometry y="40" width="140" height="20" as="geometry" />
        </mxCell>
        <mxCell id="UlQWl9-wMikR5g_MKxwP-19" value="" style="rounded=0;whiteSpace=wrap;html=1;" vertex="1" parent="1">
          <mxGeometry x="440" y="40" width="160" height="150" as="geometry" />
        </mxCell>
        <mxCell id="UlQWl9-wMikR5g_MKxwP-20" value="" style="group" vertex="1" connectable="0" parent="1">
          <mxGeometry x="450" y="50" width="140" height="60" as="geometry" />
        </mxCell>
        <mxCell id="UlQWl9-wMikR5g_MKxwP-21" value="&amp;nbsp;4" style="rounded=0;whiteSpace=wrap;html=1;align=left;fillColor=#647687;fontColor=#ffffff;strokeColor=#314354;" vertex="1" parent="UlQWl9-wMikR5g_MKxwP-20">
          <mxGeometry width="140" height="20" as="geometry" />
        </mxCell>
        <mxCell id="UlQWl9-wMikR5g_MKxwP-22" value="&amp;nbsp;6" style="rounded=0;whiteSpace=wrap;html=1;align=left;fillColor=#647687;fontColor=#ffffff;strokeColor=#314354;" vertex="1" parent="UlQWl9-wMikR5g_MKxwP-20">
          <mxGeometry y="20" width="140" height="20" as="geometry" />
        </mxCell>
        <mxCell id="UlQWl9-wMikR5g_MKxwP-24" value="" style="group" vertex="1" connectable="0" parent="1">
          <mxGeometry x="450" y="120" width="140" height="60" as="geometry" />
        </mxCell>
        <mxCell id="UlQWl9-wMikR5g_MKxwP-25" value="&amp;nbsp;1" style="rounded=0;whiteSpace=wrap;html=1;align=left;fillColor=#6d8764;fontColor=#ffffff;strokeColor=#3A5431;" vertex="1" parent="UlQWl9-wMikR5g_MKxwP-24">
          <mxGeometry width="140" height="20" as="geometry" />
        </mxCell>
        <mxCell id="UlQWl9-wMikR5g_MKxwP-26" value="&amp;nbsp;8" style="rounded=0;whiteSpace=wrap;html=1;align=left;fillColor=#6d8764;fontColor=#ffffff;strokeColor=#3A5431;" vertex="1" parent="UlQWl9-wMikR5g_MKxwP-24">
          <mxGeometry y="20" width="140" height="20" as="geometry" />
        </mxCell>
        <mxCell id="UlQWl9-wMikR5g_MKxwP-28" value="Exchange&lt;br&gt;Shuffle + Sort" style="ellipse;whiteSpace=wrap;html=1;" vertex="1" parent="1">
          <mxGeometry x="260" y="230" width="120" height="60" as="geometry" />
        </mxCell>
        <mxCell id="UlQWl9-wMikR5g_MKxwP-29" value="" style="rounded=0;whiteSpace=wrap;html=1;" vertex="1" parent="1">
          <mxGeometry x="40" y="320" width="160" height="150" as="geometry" />
        </mxCell>
        <mxCell id="UlQWl9-wMikR5g_MKxwP-30" value="" style="group;fillColor=#fad9d5;strokeColor=#ae4132;" vertex="1" connectable="0" parent="1">
          <mxGeometry x="50" y="330" width="140" height="60" as="geometry" />
        </mxCell>
        <mxCell id="UlQWl9-wMikR5g_MKxwP-31" value="&amp;nbsp;1" style="rounded=0;whiteSpace=wrap;html=1;align=left;fillColor=#647687;fontColor=#ffffff;strokeColor=#314354;" vertex="1" parent="UlQWl9-wMikR5g_MKxwP-30">
          <mxGeometry width="140" height="20" as="geometry" />
        </mxCell>
        <mxCell id="UlQWl9-wMikR5g_MKxwP-32" value="&amp;nbsp;2" style="rounded=0;whiteSpace=wrap;html=1;align=left;fillColor=#647687;fontColor=#ffffff;strokeColor=#314354;" vertex="1" parent="UlQWl9-wMikR5g_MKxwP-30">
          <mxGeometry y="20" width="140" height="20" as="geometry" />
        </mxCell>
        <mxCell id="UlQWl9-wMikR5g_MKxwP-33" value="&amp;nbsp;3" style="rounded=0;whiteSpace=wrap;html=1;align=left;fillColor=#647687;fontColor=#ffffff;strokeColor=#314354;" vertex="1" parent="UlQWl9-wMikR5g_MKxwP-30">
          <mxGeometry y="40" width="140" height="20" as="geometry" />
        </mxCell>
        <mxCell id="UlQWl9-wMikR5g_MKxwP-34" value="" style="group" vertex="1" connectable="0" parent="1">
          <mxGeometry x="50" y="400" width="140" height="60" as="geometry" />
        </mxCell>
        <mxCell id="UlQWl9-wMikR5g_MKxwP-35" value="&amp;nbsp;1" style="rounded=0;whiteSpace=wrap;html=1;align=left;fillColor=#6d8764;fontColor=#ffffff;strokeColor=#3A5431;" vertex="1" parent="UlQWl9-wMikR5g_MKxwP-34">
          <mxGeometry width="140" height="20" as="geometry" />
        </mxCell>
        <mxCell id="UlQWl9-wMikR5g_MKxwP-36" value="&amp;nbsp;2" style="rounded=0;whiteSpace=wrap;html=1;align=left;fillColor=#6d8764;fontColor=#ffffff;strokeColor=#3A5431;" vertex="1" parent="UlQWl9-wMikR5g_MKxwP-34">
          <mxGeometry y="20" width="140" height="20" as="geometry" />
        </mxCell>
        <mxCell id="UlQWl9-wMikR5g_MKxwP-37" value="&amp;nbsp;3" style="rounded=0;whiteSpace=wrap;html=1;align=left;fillColor=#6d8764;fontColor=#ffffff;strokeColor=#3A5431;" vertex="1" parent="UlQWl9-wMikR5g_MKxwP-34">
          <mxGeometry y="40" width="140" height="20" as="geometry" />
        </mxCell>
        <mxCell id="UlQWl9-wMikR5g_MKxwP-38" value="" style="rounded=0;whiteSpace=wrap;html=1;" vertex="1" parent="1">
          <mxGeometry x="240" y="320" width="160" height="150" as="geometry" />
        </mxCell>
        <mxCell id="UlQWl9-wMikR5g_MKxwP-39" value="" style="group" vertex="1" connectable="0" parent="1">
          <mxGeometry x="250" y="330" width="140" height="60" as="geometry" />
        </mxCell>
        <mxCell id="UlQWl9-wMikR5g_MKxwP-40" value="&amp;nbsp;4" style="rounded=0;whiteSpace=wrap;html=1;align=left;fillColor=#647687;fontColor=#ffffff;strokeColor=#314354;" vertex="1" parent="UlQWl9-wMikR5g_MKxwP-39">
          <mxGeometry width="140" height="20" as="geometry" />
        </mxCell>
        <mxCell id="UlQWl9-wMikR5g_MKxwP-41" value="&amp;nbsp;5" style="rounded=0;whiteSpace=wrap;html=1;align=left;fillColor=#647687;fontColor=#ffffff;strokeColor=#314354;" vertex="1" parent="UlQWl9-wMikR5g_MKxwP-39">
          <mxGeometry y="20" width="140" height="20" as="geometry" />
        </mxCell>
        <mxCell id="UlQWl9-wMikR5g_MKxwP-42" value="&amp;nbsp;6" style="rounded=0;whiteSpace=wrap;html=1;align=left;fillColor=#647687;fontColor=#ffffff;strokeColor=#314354;" vertex="1" parent="UlQWl9-wMikR5g_MKxwP-39">
          <mxGeometry y="40" width="140" height="20" as="geometry" />
        </mxCell>
        <mxCell id="UlQWl9-wMikR5g_MKxwP-43" value="" style="group" vertex="1" connectable="0" parent="1">
          <mxGeometry x="250" y="400" width="140" height="60" as="geometry" />
        </mxCell>
        <mxCell id="UlQWl9-wMikR5g_MKxwP-44" value="&amp;nbsp;4" style="rounded=0;whiteSpace=wrap;html=1;align=left;fillColor=#6d8764;fontColor=#ffffff;strokeColor=#3A5431;" vertex="1" parent="UlQWl9-wMikR5g_MKxwP-43">
          <mxGeometry width="140" height="20" as="geometry" />
        </mxCell>
        <mxCell id="UlQWl9-wMikR5g_MKxwP-45" value="&amp;nbsp;5" style="rounded=0;whiteSpace=wrap;html=1;align=left;fillColor=#6d8764;fontColor=#ffffff;strokeColor=#3A5431;" vertex="1" parent="UlQWl9-wMikR5g_MKxwP-43">
          <mxGeometry y="20" width="140" height="20" as="geometry" />
        </mxCell>
        <mxCell id="UlQWl9-wMikR5g_MKxwP-46" value="&amp;nbsp;6" style="rounded=0;whiteSpace=wrap;html=1;align=left;fillColor=#6d8764;fontColor=#ffffff;strokeColor=#3A5431;" vertex="1" parent="UlQWl9-wMikR5g_MKxwP-43">
          <mxGeometry y="40" width="140" height="20" as="geometry" />
        </mxCell>
        <mxCell id="UlQWl9-wMikR5g_MKxwP-47" value="" style="rounded=0;whiteSpace=wrap;html=1;" vertex="1" parent="1">
          <mxGeometry x="440" y="320" width="160" height="150" as="geometry" />
        </mxCell>
        <mxCell id="UlQWl9-wMikR5g_MKxwP-48" value="" style="group" vertex="1" connectable="0" parent="1">
          <mxGeometry x="450" y="330" width="140" height="60" as="geometry" />
        </mxCell>
        <mxCell id="UlQWl9-wMikR5g_MKxwP-49" value="&amp;nbsp;7" style="rounded=0;whiteSpace=wrap;html=1;align=left;fillColor=#647687;fontColor=#ffffff;strokeColor=#314354;" vertex="1" parent="UlQWl9-wMikR5g_MKxwP-48">
          <mxGeometry width="140" height="20" as="geometry" />
        </mxCell>
        <mxCell id="UlQWl9-wMikR5g_MKxwP-50" value="&amp;nbsp;8" style="rounded=0;whiteSpace=wrap;html=1;align=left;fillColor=#647687;fontColor=#ffffff;strokeColor=#314354;" vertex="1" parent="UlQWl9-wMikR5g_MKxwP-48">
          <mxGeometry y="20" width="140" height="20" as="geometry" />
        </mxCell>
        <mxCell id="UlQWl9-wMikR5g_MKxwP-51" value="" style="group" vertex="1" connectable="0" parent="1">
          <mxGeometry x="450" y="400" width="140" height="60" as="geometry" />
        </mxCell>
        <mxCell id="UlQWl9-wMikR5g_MKxwP-52" value="&amp;nbsp;7" style="rounded=0;whiteSpace=wrap;html=1;align=left;fillColor=#6d8764;fontColor=#ffffff;strokeColor=#3A5431;" vertex="1" parent="UlQWl9-wMikR5g_MKxwP-51">
          <mxGeometry width="140" height="20" as="geometry" />
        </mxCell>
        <mxCell id="UlQWl9-wMikR5g_MKxwP-53" value="&amp;nbsp;8" style="rounded=0;whiteSpace=wrap;html=1;align=left;fillColor=#6d8764;fontColor=#ffffff;strokeColor=#3A5431;" vertex="1" parent="UlQWl9-wMikR5g_MKxwP-51">
          <mxGeometry y="20" width="140" height="20" as="geometry" />
        </mxCell>
        <mxCell id="UlQWl9-wMikR5g_MKxwP-55" style="rounded=0;orthogonalLoop=1;jettySize=auto;html=1;exitX=0.5;exitY=0;exitDx=0;exitDy=0;entryX=0.5;entryY=1;entryDx=0;entryDy=0;endArrow=none;endFill=0;" edge="1" parent="1" source="UlQWl9-wMikR5g_MKxwP-28" target="UlQWl9-wMikR5g_MKxwP-19">
          <mxGeometry relative="1" as="geometry">
            <mxPoint x="130" y="200" as="sourcePoint" />
            <mxPoint x="330" y="240" as="targetPoint" />
          </mxGeometry>
        </mxCell>
        <mxCell id="UlQWl9-wMikR5g_MKxwP-56" style="rounded=0;orthogonalLoop=1;jettySize=auto;html=1;entryX=0.5;entryY=0;entryDx=0;entryDy=0;endArrow=none;endFill=0;" edge="1" parent="1" target="UlQWl9-wMikR5g_MKxwP-38">
          <mxGeometry relative="1" as="geometry">
            <mxPoint x="320" y="290" as="sourcePoint" />
            <mxPoint x="530" y="200" as="targetPoint" />
          </mxGeometry>
        </mxCell>
        <mxCell id="UlQWl9-wMikR5g_MKxwP-57" style="rounded=0;orthogonalLoop=1;jettySize=auto;html=1;exitX=0.5;exitY=1;exitDx=0;exitDy=0;entryX=0.5;entryY=0;entryDx=0;entryDy=0;endArrow=none;endFill=0;" edge="1" parent="1" source="UlQWl9-wMikR5g_MKxwP-28" target="UlQWl9-wMikR5g_MKxwP-29">
          <mxGeometry relative="1" as="geometry">
            <mxPoint x="340" y="250" as="sourcePoint" />
            <mxPoint x="540" y="210" as="targetPoint" />
          </mxGeometry>
        </mxCell>
        <mxCell id="UlQWl9-wMikR5g_MKxwP-58" style="rounded=0;orthogonalLoop=1;jettySize=auto;html=1;exitX=0.5;exitY=1;exitDx=0;exitDy=0;endArrow=none;endFill=0;entryX=0.5;entryY=0;entryDx=0;entryDy=0;" edge="1" parent="1" source="UlQWl9-wMikR5g_MKxwP-28" target="UlQWl9-wMikR5g_MKxwP-47">
          <mxGeometry relative="1" as="geometry">
            <mxPoint x="350" y="260" as="sourcePoint" />
            <mxPoint x="550" y="220" as="targetPoint" />
          </mxGeometry>
        </mxCell>
        <mxCell id="UlQWl9-wMikR5g_MKxwP-59" style="rounded=0;orthogonalLoop=1;jettySize=auto;html=1;exitX=0.5;exitY=0;exitDx=0;exitDy=0;entryX=0.5;entryY=1;entryDx=0;entryDy=0;endArrow=none;endFill=0;" edge="1" parent="1" source="UlQWl9-wMikR5g_MKxwP-28" target="UlQWl9-wMikR5g_MKxwP-10">
          <mxGeometry relative="1" as="geometry">
            <mxPoint x="360" y="270" as="sourcePoint" />
            <mxPoint x="560" y="230" as="targetPoint" />
          </mxGeometry>
        </mxCell>
        <mxCell id="UlQWl9-wMikR5g_MKxwP-69" value="Merge" style="ellipse;whiteSpace=wrap;html=1;" vertex="1" parent="1">
          <mxGeometry x="260" y="520" width="120" height="60" as="geometry" />
        </mxCell>
        <mxCell id="UlQWl9-wMikR5g_MKxwP-70" value="" style="rounded=0;whiteSpace=wrap;html=1;" vertex="1" parent="1">
          <mxGeometry x="40" y="610" width="160" height="80" as="geometry" />
        </mxCell>
        <mxCell id="UlQWl9-wMikR5g_MKxwP-71" value="" style="group;fillColor=#fad9d5;strokeColor=#ae4132;" vertex="1" connectable="0" parent="1">
          <mxGeometry x="50" y="620" width="70" height="60" as="geometry" />
        </mxCell>
        <mxCell id="UlQWl9-wMikR5g_MKxwP-72" value="&amp;nbsp;1" style="rounded=0;whiteSpace=wrap;html=1;align=left;fillColor=#647687;fontColor=#ffffff;strokeColor=#314354;" vertex="1" parent="UlQWl9-wMikR5g_MKxwP-71">
          <mxGeometry width="70" height="20" as="geometry" />
        </mxCell>
        <mxCell id="UlQWl9-wMikR5g_MKxwP-73" value="&amp;nbsp;2" style="rounded=0;whiteSpace=wrap;html=1;align=left;fillColor=#647687;fontColor=#ffffff;strokeColor=#314354;" vertex="1" parent="UlQWl9-wMikR5g_MKxwP-71">
          <mxGeometry y="20" width="70" height="20" as="geometry" />
        </mxCell>
        <mxCell id="UlQWl9-wMikR5g_MKxwP-74" value="&amp;nbsp;3" style="rounded=0;whiteSpace=wrap;html=1;align=left;fillColor=#647687;fontColor=#ffffff;strokeColor=#314354;" vertex="1" parent="UlQWl9-wMikR5g_MKxwP-71">
          <mxGeometry y="40" width="70" height="20" as="geometry" />
        </mxCell>
        <mxCell id="UlQWl9-wMikR5g_MKxwP-75" value="" style="group" vertex="1" connectable="0" parent="1">
          <mxGeometry x="120" y="620" width="70" height="60" as="geometry" />
        </mxCell>
        <mxCell id="UlQWl9-wMikR5g_MKxwP-76" value="&amp;nbsp;1" style="rounded=0;whiteSpace=wrap;html=1;align=left;fillColor=#6d8764;fontColor=#ffffff;strokeColor=#3A5431;" vertex="1" parent="UlQWl9-wMikR5g_MKxwP-75">
          <mxGeometry width="70" height="20" as="geometry" />
        </mxCell>
        <mxCell id="UlQWl9-wMikR5g_MKxwP-77" value="&amp;nbsp;2" style="rounded=0;whiteSpace=wrap;html=1;align=left;fillColor=#6d8764;fontColor=#ffffff;strokeColor=#3A5431;" vertex="1" parent="UlQWl9-wMikR5g_MKxwP-75">
          <mxGeometry y="20" width="70" height="20" as="geometry" />
        </mxCell>
        <mxCell id="UlQWl9-wMikR5g_MKxwP-78" value="&amp;nbsp;3" style="rounded=0;whiteSpace=wrap;html=1;align=left;fillColor=#6d8764;fontColor=#ffffff;strokeColor=#3A5431;" vertex="1" parent="UlQWl9-wMikR5g_MKxwP-75">
          <mxGeometry y="40" width="70" height="20" as="geometry" />
        </mxCell>
        <mxCell id="UlQWl9-wMikR5g_MKxwP-79" value="" style="rounded=0;whiteSpace=wrap;html=1;" vertex="1" parent="1">
          <mxGeometry x="240" y="610" width="160" height="80" as="geometry" />
        </mxCell>
        <mxCell id="UlQWl9-wMikR5g_MKxwP-80" value="" style="group" vertex="1" connectable="0" parent="1">
          <mxGeometry x="250" y="620" width="70" height="60" as="geometry" />
        </mxCell>
        <mxCell id="UlQWl9-wMikR5g_MKxwP-81" value="&amp;nbsp;4" style="rounded=0;whiteSpace=wrap;html=1;align=left;fillColor=#647687;fontColor=#ffffff;strokeColor=#314354;" vertex="1" parent="UlQWl9-wMikR5g_MKxwP-80">
          <mxGeometry width="70" height="20" as="geometry" />
        </mxCell>
        <mxCell id="UlQWl9-wMikR5g_MKxwP-82" value="&amp;nbsp;5" style="rounded=0;whiteSpace=wrap;html=1;align=left;fillColor=#647687;fontColor=#ffffff;strokeColor=#314354;" vertex="1" parent="UlQWl9-wMikR5g_MKxwP-80">
          <mxGeometry y="20" width="70" height="20" as="geometry" />
        </mxCell>
        <mxCell id="UlQWl9-wMikR5g_MKxwP-83" value="&amp;nbsp;6" style="rounded=0;whiteSpace=wrap;html=1;align=left;fillColor=#647687;fontColor=#ffffff;strokeColor=#314354;" vertex="1" parent="UlQWl9-wMikR5g_MKxwP-80">
          <mxGeometry y="40" width="70" height="20" as="geometry" />
        </mxCell>
        <mxCell id="UlQWl9-wMikR5g_MKxwP-84" value="" style="group" vertex="1" connectable="0" parent="1">
          <mxGeometry x="320" y="620" width="70" height="60" as="geometry" />
        </mxCell>
        <mxCell id="UlQWl9-wMikR5g_MKxwP-85" value="&amp;nbsp;4" style="rounded=0;whiteSpace=wrap;html=1;align=left;fillColor=#6d8764;fontColor=#ffffff;strokeColor=#3A5431;" vertex="1" parent="UlQWl9-wMikR5g_MKxwP-84">
          <mxGeometry width="70" height="20" as="geometry" />
        </mxCell>
        <mxCell id="UlQWl9-wMikR5g_MKxwP-86" value="&amp;nbsp;5" style="rounded=0;whiteSpace=wrap;html=1;align=left;fillColor=#6d8764;fontColor=#ffffff;strokeColor=#3A5431;" vertex="1" parent="UlQWl9-wMikR5g_MKxwP-84">
          <mxGeometry y="20" width="70" height="20" as="geometry" />
        </mxCell>
        <mxCell id="UlQWl9-wMikR5g_MKxwP-87" value="&amp;nbsp;6" style="rounded=0;whiteSpace=wrap;html=1;align=left;fillColor=#6d8764;fontColor=#ffffff;strokeColor=#3A5431;" vertex="1" parent="UlQWl9-wMikR5g_MKxwP-84">
          <mxGeometry y="40" width="70" height="20" as="geometry" />
        </mxCell>
        <mxCell id="UlQWl9-wMikR5g_MKxwP-88" value="" style="rounded=0;whiteSpace=wrap;html=1;" vertex="1" parent="1">
          <mxGeometry x="440" y="610" width="160" height="80" as="geometry" />
        </mxCell>
        <mxCell id="UlQWl9-wMikR5g_MKxwP-89" value="" style="group" vertex="1" connectable="0" parent="1">
          <mxGeometry x="450" y="620" width="70" height="60" as="geometry" />
        </mxCell>
        <mxCell id="UlQWl9-wMikR5g_MKxwP-90" value="&amp;nbsp;7" style="rounded=0;whiteSpace=wrap;html=1;align=left;fillColor=#647687;fontColor=#ffffff;strokeColor=#314354;" vertex="1" parent="UlQWl9-wMikR5g_MKxwP-89">
          <mxGeometry width="70" height="20" as="geometry" />
        </mxCell>
        <mxCell id="UlQWl9-wMikR5g_MKxwP-91" value="&amp;nbsp;8" style="rounded=0;whiteSpace=wrap;html=1;align=left;fillColor=#647687;fontColor=#ffffff;strokeColor=#314354;" vertex="1" parent="UlQWl9-wMikR5g_MKxwP-89">
          <mxGeometry y="20" width="70" height="20" as="geometry" />
        </mxCell>
        <mxCell id="UlQWl9-wMikR5g_MKxwP-92" value="" style="group" vertex="1" connectable="0" parent="1">
          <mxGeometry x="520" y="620" width="70" height="60" as="geometry" />
        </mxCell>
        <mxCell id="UlQWl9-wMikR5g_MKxwP-93" value="&amp;nbsp;7" style="rounded=0;whiteSpace=wrap;html=1;align=left;fillColor=#6d8764;fontColor=#ffffff;strokeColor=#3A5431;" vertex="1" parent="UlQWl9-wMikR5g_MKxwP-92">
          <mxGeometry width="70" height="20" as="geometry" />
        </mxCell>
        <mxCell id="UlQWl9-wMikR5g_MKxwP-94" value="&amp;nbsp;8" style="rounded=0;whiteSpace=wrap;html=1;align=left;fillColor=#6d8764;fontColor=#ffffff;strokeColor=#3A5431;" vertex="1" parent="UlQWl9-wMikR5g_MKxwP-92">
          <mxGeometry y="20" width="70" height="20" as="geometry" />
        </mxCell>
        <mxCell id="UlQWl9-wMikR5g_MKxwP-95" style="rounded=0;orthogonalLoop=1;jettySize=auto;html=1;entryX=0.5;entryY=0;entryDx=0;entryDy=0;endArrow=none;endFill=0;" edge="1" parent="1" target="UlQWl9-wMikR5g_MKxwP-79">
          <mxGeometry relative="1" as="geometry">
            <mxPoint x="320" y="580" as="sourcePoint" />
            <mxPoint x="530" y="490" as="targetPoint" />
          </mxGeometry>
        </mxCell>
        <mxCell id="UlQWl9-wMikR5g_MKxwP-96" style="rounded=0;orthogonalLoop=1;jettySize=auto;html=1;exitX=0.5;exitY=1;exitDx=0;exitDy=0;entryX=0.5;entryY=0;entryDx=0;entryDy=0;endArrow=none;endFill=0;" edge="1" parent="1" source="UlQWl9-wMikR5g_MKxwP-69" target="UlQWl9-wMikR5g_MKxwP-70">
          <mxGeometry relative="1" as="geometry">
            <mxPoint x="340" y="540" as="sourcePoint" />
            <mxPoint x="540" y="500" as="targetPoint" />
          </mxGeometry>
        </mxCell>
        <mxCell id="UlQWl9-wMikR5g_MKxwP-97" style="rounded=0;orthogonalLoop=1;jettySize=auto;html=1;exitX=0.5;exitY=1;exitDx=0;exitDy=0;endArrow=none;endFill=0;entryX=0.5;entryY=0;entryDx=0;entryDy=0;" edge="1" parent="1" source="UlQWl9-wMikR5g_MKxwP-69" target="UlQWl9-wMikR5g_MKxwP-88">
          <mxGeometry relative="1" as="geometry">
            <mxPoint x="350" y="550" as="sourcePoint" />
            <mxPoint x="550" y="510" as="targetPoint" />
          </mxGeometry>
        </mxCell>
        <mxCell id="UlQWl9-wMikR5g_MKxwP-98" style="rounded=0;orthogonalLoop=1;jettySize=auto;html=1;exitX=0.5;exitY=0;exitDx=0;exitDy=0;endArrow=none;endFill=0;entryX=0.5;entryY=1;entryDx=0;entryDy=0;" edge="1" parent="1" source="UlQWl9-wMikR5g_MKxwP-69" target="UlQWl9-wMikR5g_MKxwP-38">
          <mxGeometry relative="1" as="geometry">
            <mxPoint x="330" y="590" as="sourcePoint" />
            <mxPoint x="530" y="620" as="targetPoint" />
          </mxGeometry>
        </mxCell>
        <mxCell id="UlQWl9-wMikR5g_MKxwP-99" style="rounded=0;orthogonalLoop=1;jettySize=auto;html=1;exitX=0.5;exitY=0;exitDx=0;exitDy=0;endArrow=none;endFill=0;entryX=0.5;entryY=1;entryDx=0;entryDy=0;" edge="1" parent="1" source="UlQWl9-wMikR5g_MKxwP-69" target="UlQWl9-wMikR5g_MKxwP-29">
          <mxGeometry relative="1" as="geometry">
            <mxPoint x="340" y="600" as="sourcePoint" />
            <mxPoint x="540" y="630" as="targetPoint" />
          </mxGeometry>
        </mxCell>
        <mxCell id="UlQWl9-wMikR5g_MKxwP-100" style="rounded=0;orthogonalLoop=1;jettySize=auto;html=1;exitX=0.5;exitY=0;exitDx=0;exitDy=0;endArrow=none;endFill=0;entryX=0.5;entryY=1;entryDx=0;entryDy=0;" edge="1" parent="1" source="UlQWl9-wMikR5g_MKxwP-69" target="UlQWl9-wMikR5g_MKxwP-47">
          <mxGeometry relative="1" as="geometry">
            <mxPoint x="350" y="610" as="sourcePoint" />
            <mxPoint x="550" y="640" as="targetPoint" />
          </mxGeometry>
        </mxCell>
      </root>
    </mxGraphModel>
  </diagram>
</mxfile>
